<?xml version="1.0" encoding="UTF-8"?>
<!DOCTYPE svg PUBLIC "-//W3C//DTD SVG 1.1//EN" "http://www.w3.org/Graphics/SVG/1.1/DTD/svg11.dtd">
<svg xmlns="http://www.w3.org/2000/svg" xmlns:xlink="http://www.w3.org/1999/xlink">

  <symbol id="arrow-se" viewBox="0 0 16 16">
    <path fill-rule="evenodd" clip-rule="evenodd" d="M16 0v16H0v-2h12.582L.105 1.524 1.52.109 14 12.59V0h2z" />
  </symbol>

  <symbol id="info" viewBox="0 0 4 18">
    <path d="M0 6h4v12H0zM0 4h4V0H0z" />
  </symbol>

  <symbol id="chevron-n" viewBox="0 0 16 10">
    <path fill-rule="evenodd"
      d="M8.032 2.843l6.518 6.519 1.415-1.414-6.519-6.519.002-.001L8.033.014l-.001.001-.01-.01-1.415 1.414.01.01L.069 7.98l1.414 1.414 6.55-6.55z"
      clip-rule="evenodd" />
  </symbol>

  <symbol id="award" viewBox="0 0 32 32">
    <path fill-rule="evenodd"
      d="M16.633 1.336l3.634 3.95 5.118.8-.8 5.275 2.545 4.77-4.612 2.544-2.07 4.935-4.934-2.069-4.892 1.376.996 2.683.973-1.62 2.287 1.371-3.827 6.379-2.328-6.266-7.371 1.005 4.002-7.624 2.361 1.24-1.597 3.043 4.176-.57-1.315-4.675-4.302-3.028 3.033-4.31-.318-5.397 5.272-.32 3.969-3.492zm-.197 3.725L13.74 7.435l-3.529.214.216 3.67-2.034 2.89 2.898 2.039.967 3.44 3.43-.966 3.334 1.398 1.397-3.332 3.122-1.722-1.723-3.23.534-3.525-3.416-.534-2.499-2.716z"
      clip-rule="evenodd" />
    <path
      d="M26.144 19.305l3.638 7.85-6.86-1.373-2.693 6.106-3.413-6.611 2.37-1.223.854 1.655 1.307-2.961 3.807.761-1.43-3.083 2.42-1.121z" />
  </symbol>

  <symbol id="book" viewBox="0 0 32 31">
    <path
      d="M13.333 10.667h-8V8h8v2.667zM5.333 16h8v-2.667h-8V16zM13.333 21.333h-8v-2.666h8v2.666zM18.667 16h8v-2.667h-8V16zM26.667 21.333h-8v-2.666h8v2.666zM18.667 10.667h8V8h-8v2.667z" />
    <path fill-rule="evenodd"
      d="M0 0h13.333v1.333c0 .147.064.398.704.68.62.273 1.426.387 1.963.387.613 0 1.412-.117 2.004-.383.591-.265.663-.506.663-.684V0H32v28.533H21.038c-.436.906-1.279 1.47-2.001 1.787-1.046.46-2.24.613-3.037.613-.797 0-1.99-.152-3.037-.613-.722-.317-1.565-.881-2.001-1.787H0V0zm2.667 2.667v23.2h10.666V27.2c0 .147.064.398.704.68.62.273 1.426.387 1.963.387.537 0 1.343-.114 1.963-.387.64-.282.704-.533.704-.68v-1.333h10.666v-23.2h-8.288c-.417.888-1.22 1.456-1.949 1.783-1.04.467-2.242.617-3.096.617-.797 0-1.99-.153-3.037-.613-.722-.318-1.565-.882-2.001-1.787H2.667z"
      clip-rule="evenodd" />
  </symbol>

  <symbol id="document" viewBox="0 0 32 32">
    <path
      d="M24.001 26.667h-16V24h16v2.667zM8.001 21.333h16v-2.666h-16v2.666zM24.001 16h-16v-2.667h16V16zM8.001 8h9.334V5.333H8V8z" />
    <path fill-rule="evenodd"
      d="M2.668 0H23.22l6.115 6.114V32H2.668V0zm2.667 2.667v26.666h21.333V7.22l-4.552-4.552H5.335z"
      clip-rule="evenodd" />
  </symbol>

  <symbol id="information" viewBox="0 0 33 32">
    <path d="M17.833 6.667v2.666h-2.666V6.667h2.666zM15.167 20v-5.333H12.5V12h5.333v8h4v2.667H11.167V20h4z" />
    <path fill-rule="evenodd"
      d="M.5 16c0-8.8 7.2-16 16-16s16 7.2 16 16-7.2 16-16 16-16-7.2-16-16zm29.333 0c0-7.333-6-13.333-13.333-13.333S3.167 8.667 3.167 16s6 13.333 13.333 13.333 13.333-6 13.333-13.333z"
      clip-rule="evenodd" />
  </symbol>

  <symbol id="list" viewBox="0 0 21 18">
    <path
      d="M20.6.5h-13v2h13v-2zM.6 5.5h4v2h-4v-2zM7.6 5.5h13v2h-13v-2zM.6.5h4v2h-4v-2zM20.6 10.5h-13v2h13v-2zM.6 10.5h4v2h-4v-2zM20.6 15.5h-13v2h13v-2zM.6 15.5h4v2h-4v-2z" />
  </symbol>

  <symbol id="cross" viewBox="0 0 24 24">
    <path stroke-linecap="square" stroke-width="2" d="M17.656 17.657L6.343 6.343M17.657 6.343L6.344 17.657" />
  </symbol>

  <symbol id="check" viewBox="0 0 14 11">
    <path stroke-width="2" d="M1 4.25l4.5 4.5 7.5-7.5" />
  </symbol>

  <symbol id="download" viewBox="0 0 24 24">
    <path fill-rule="evenodd" d="M24 24H0v-8h4v4h16v-4h4v8z" clip-rule="evenodd" />
    <path d="M14 0v12h-4V0z" />
    <path fill-rule="evenodd"
      d="M11.998 17.39L23.98 5.407l-2.828-2.829-9.166 9.167-9.159-9.159L0 5.415 11.985 17.4l.011-.011.002.001z"
      clip-rule="evenodd" />
  </symbol>

  <symbol id="search" viewBox="0 0 24 24">
    <path fill-rule="evenodd"
      d="M0 9.5a9.5 9.5 0 1119 0 9.46 9.46 0 01-2.113 5.973l5.82 5.82-1.414 1.414-5.82-5.82A9.46 9.46 0 019.5 19 9.5 9.5 0 010 9.5zm15.335 4.712l-1.123 1.123a7.5 7.5 0 111.123-1.123z"
      clip-rule="evenodd" />
  </symbol>

  <symbol id="arrow-e" viewBox="0 0 16 16">
    <path
      d="M7.293 13.293L6.586 14 8 15.414l.707-.707-1.414-1.414zM14 8l.707.707.707-.707-.707-.707L14 8zM8.707 1.293L8 .586 6.586 2l.707.707 1.414-1.414zm0 13.414l6-6-1.414-1.414-6 6 1.414 1.414zm6-7.414l-6-6-1.414 1.414 6 6 1.414-1.414zM14 7H2v2h12V7z" />
  </symbol>

  <symbol id="arrow-w" viewBox="0 0 16 16">
    <path
      d="M8.707 2.707L9.414 2 8 .586l-.707.707 1.414 1.414zM2 8l-.707-.707L.586 8l.707.707L2 8zm5.293 6.707l.707.707L9.414 14l-.707-.707-1.414 1.414zm0-13.414l-6 6 1.414 1.414 6-6-1.414-1.414zm-6 7.414l6 6 1.414-1.414-6-6-1.414 1.414zM2 9h12V7H2v2z" />
  </symbol>



  <symbol id="order-s" viewBox="0 0 25 24">
    <g clip-path="url(#clip0_3404_60501)">
      <path d="M17 3v5h3.5V6H19V3h-2z" />
      <path fill-rule="evenodd"
        d="M11.5 6.5C11.5 2.9 14.4 0 18 0s6.5 2.9 6.5 6.5S21.6 13 18 13s-6.5-2.9-6.5-6.5zm11 0C22.5 4 20.5 2 18 2s-4.5 2-4.5 4.5 2 4.5 4.5 4.5 4.5-2 4.5-4.5z"
        clip-rule="evenodd" />
      <path
        d="M2.5 20V4h4v6.51l4.69-1.99-.78-1.84-1.91.81V4h2c.1-.7.2-1.4.5-2H.5v20h22v-9.3c-.6.6-1.3 1.1-2 1.2V20h-18z" />
      <path d="M9.5 16h-5v-2h5v2z" />
    </g>
  </symbol>

  <symbol id="order-l" viewBox="0 0 24 24">
    <path
      d="M10.637 10.356L7.14 6.857l1.414-1.414L11 7.89V1h2v6.993l2.507-2.507L16.92 6.9l-3.455 3.456.037.037-1.414 1.414-.037-.037-.01.01-1.414-1.415.01-.01z" />
    <path d="M5 4V2H1v20h22V2h-4v2h2v16H3V4h2z" />
    <path d="M4 18h5v-2H4v2z" />
  </symbol>

  <symbol id='arrow-pagination' viewBox="0 0 10 16" fill="none" xmlns="http://www.w3.org/2000/svg">
    <path fill-rule="evenodd" clip-rule="evenodd"
      d="M2.66973 8.0251L9.54036 1.15446L8.4764 0.0904942L0.533446 8.03345L1.59741 9.09741L1.60701 9.08781L8.5096 15.9904L9.57231 14.9277L2.66973 8.0251Z"
      fill="#110101" />
  </symbol>

  <symbol id='arrow-long' viewBox="0 0 14 16" fill="none" xmlns="http://www.w3.org/2000/svg">
    <path
      d="M8.70711 2.70711L9.41421 2L8 0.585786L7.29289 1.29289L8.70711 2.70711ZM2 8L1.29289 7.29289L0.585786 8L1.29289 8.70711L2 8ZM7.29289 14.7071L8 15.4142L9.41421 14L8.70711 13.2929L7.29289 14.7071ZM7.29289 1.29289L1.29289 7.29289L2.70711 8.70711L8.70711 2.70711L7.29289 1.29289ZM1.29289 8.70711L7.29289 14.7071L8.70711 13.2929L2.70711 7.29289L1.29289 8.70711ZM2 9L14 9V7L2 7L2 9Z"
      fill="#4F5659" fill-opacity="0.4" />
  </symbol>

  <symbol id='question-red' viewBox="0 0 7 12" xmlns="http://www.w3.org/2000/svg">
    <path
      d="M6.16 3.568C6.16 3.856 6.13333 4.112 6.08 4.336C6.02667 4.54933 5.95733 4.752 5.872 4.944C5.78667 5.12533 5.68533 5.30133 5.568 5.472C5.46133 5.632 5.344 5.80267 5.216 5.984C5.10933 6.144 4.98133 6.30933 4.832 6.48C4.69333 6.65067 4.56 6.832 4.432 7.024C4.31467 7.20533 4.21333 7.39733 4.128 7.6C4.04267 7.80267 4 8.016 4 8.24V9.28H2.992V8.368C2.992 7.696 3.17867 7.10933 3.552 6.608C3.744 6.34133 3.93067 6.096 4.112 5.872C4.29333 5.63733 4.45333 5.41333 4.592 5.2C4.74133 4.976 4.85867 4.752 4.944 4.528C5.04 4.29333 5.088 4.048 5.088 3.792C5.088 3.536 5.06133 3.28533 5.008 3.04C4.96533 2.79467 4.88 2.576 4.752 2.384C4.624 2.192 4.448 2.03733 4.224 1.92C4 1.80267 3.712 1.744 3.36 1.744C3.104 1.744 2.86933 1.79733 2.656 1.904C2.44267 2 2.256 2.13333 2.096 2.304C1.94667 2.47467 1.824 2.672 1.728 2.896C1.64267 3.10933 1.58933 3.33333 1.568 3.568C1.39733 3.536 1.232 3.50933 1.072 3.488C0.912 3.456 0.741333 3.42933 0.56 3.408C0.698667 2.52267 1.02933 1.86667 1.552 1.44C2.08533 1.00267 2.70933 0.783999 3.424 0.783999C4.34133 0.783999 5.024 1.04533 5.472 1.568C5.93067 2.08 6.16 2.74667 6.16 3.568ZM2.944 12V10.848H4.032V12H2.944Z" />
  </symbol>

  <symbol id='check-mark' viewBox="0 0 14 11" fill="none" xmlns="http://www.w3.org/2000/svg">
    <path d="M1 4.25L5.5 8.75L13 1.25" stroke="#DD2B1C" stroke-width="2" />
  </symbol>

  <symbol id='arrow-red' viewBox="0 0 12 12" xmlns="http://www.w3.org/2000/svg">
    <path fill-rule="evenodd" clip-rule="evenodd"
      d="M5.99482 7.41133L1.10651 2.52301L0.0427611 3.58676L4.93108 8.47507L4.93059 8.47556L5.99125 9.53622L5.99174 9.53573L5.99998 9.54397L7.06372 8.48022L7.05548 8.47199L11.9654 3.56207L10.9047 2.50141L5.99482 7.41133Z" />
  </symbol>

  <symbol id='basket' viewBox="0 0 20 24" xmlns="http://www.w3.org/2000/svg">
    <path d="M14 0L6 0V2L14 2V0Z" />
    <path d="M8.5 8H6.5L6.5 20H8.5L8.5 8Z" />
    <path d="M11.5 8H13.5L13.5 20H11.5L11.5 8Z" />
    <path fill-rule="evenodd" clip-rule="evenodd"
      d="M18 6L20 6V4L0 4L0 6H2L2 24L18 24L18 6ZM16 22L4 22L4 6L16 6L16 22Z" />
  </symbol>

  <symbol id='sorting' viewBox="0 0 18 18" xmlns="http://www.w3.org/2000/svg">
    <path d="M7.50015 0H17.5002V2H7.50015V0Z" />
    <path d="M7.50015 4H15.5002V6H7.50015V4Z" />
    <path d="M7.50015 8V10H13.5002V8H7.50015Z" />
    <path
      d="M7.50015 11.5858L5.50015 13.5858V0H3.50015V13.5858L1.50015 11.5858L0.0859375 13L4.50015 17.4142L8.91436 13L7.50015 11.5858Z" />
  </symbol>

  <symbol id='filters' viewBox="0 0 18 22" xmlns="http://www.w3.org/2000/svg">
    <path fill-rule="evenodd" clip-rule="evenodd"
      d="M0 0.299805V5.68641L6 12.2864V21.666L8.49285 20.1703L12 18.2998V12.2864L18 5.68641V0.299805H0ZM10 17.0998L8 18.1665V11.5132L2.35146 5.2998H15.6485L10 11.5132V17.0998ZM16 3.2998H2V2.2998H16V3.2998Z" />

  </symbol>


  <symbol id='close' viewBox="0 0 16 16" xmlns="http://www.w3.org/2000/svg">
    <path d="M13.6564 13.6566L2.3427 2.34285" stroke="#110101" stroke-width="2" stroke-linecap="square" />
    <path d="M13.6573 2.34285L2.34359 13.6566" stroke="#110101" stroke-width="2" stroke-linecap="square" />
  </symbol>

  <symbol id='download-catalog' viewBox="0 0 24 24" xmlns="http://www.w3.org/2000/svg">
    <path fill-rule="evenodd" clip-rule="evenodd" d="M24 16V24H22L2 24H0L0 22L0 16H2L2 22L22 22V16H24Z" />
    <path fill-rule="evenodd" clip-rule="evenodd"
      d="M13.0002 15.0858L13.0001 2.5H11.0001L11.0002 15.0858L5.20726 9.29289L4.50015 8.58579L3.08594 10L3.79304 10.7071L11.293 18.2071L12.0002 18.9142L12.7073 18.2071L20.2073 10.7071L20.9144 10L19.5001 8.58578L18.793 9.29289L13.0002 15.0858Z" />
  </symbol>

  <symbol id='arrow' viewBox="0 0 10 16" xmlns="http://www.w3.org/2000/svg">
    <path fill-rule="evenodd" clip-rule="evenodd"
      d="M2.17168 8.02705L9.04232 1.15641L7.97835 0.0924473L0.0353991 8.0354L1.09937 9.09937L1.10897 9.08977L8.01155 15.9924L9.07427 14.9296L2.17168 8.02705Z" />
  </symbol>

  <symbol id='arrow-slider' viewBox="0 0 25 22" xmlns="http://www.w3.org/2000/svg">
    <path fill-rule="evenodd" clip-rule="evenodd"
      d="M14 0.585938L24.4142 11.0002L14 21.4144L12.5858 20.0002L20.5858 12.0002L0 12.0002L0 10.0002L20.5858 10.0002L12.5858 2.00015L14 0.585938Z"
      fill-opacity="0.4" />
  </symbol>

  <symbol id='print' viewBox="0 0 24 24" xmlns="http://www.w3.org/2000/svg">
    <path fill-rule="evenodd" clip-rule="evenodd"
      d="M18 2V6H22V18H18V21H6V18H2V6H6V2H18ZM16 6V4H8V6H16ZM8 19H16V16H8V19ZM18 14V16H20V8H4V16H6V14H18Z"
      fill-opacity="0.4" />
  </symbol>

</svg>