<?xml version="1.0" encoding="UTF-8"?><!DOCTYPE svg PUBLIC "-//W3C//DTD SVG 1.1//EN" "http://www.w3.org/Graphics/SVG/1.1/DTD/svg11.dtd"><svg xmlns="http://www.w3.org/2000/svg" xmlns:xlink="http://www.w3.org/1999/xlink"><defs><clipPath><path d="M0 0h32v32H0z" transform="translate(.5)"/></clipPath><clipPath><path d="M0 0h24v24H0z" transform="translate(.5)"/></clipPath></defs><symbol id="arrow-e" viewBox="0 0 16 16"><path fill-opacity=".2" d="M7.293 13.293L6.586 14 8 15.414l.707-.707-1.414-1.414zM14 8l.707.707.707-.707-.707-.707L14 8zM8.707 1.293L8 .586 6.586 2l.707.707 1.414-1.414zm0 13.414l6-6-1.414-1.414-6 6 1.414 1.414zm6-7.414l-6-6-1.414 1.414 6 6 1.414-1.414zM14 7H2v2h12V7z"/></symbol><symbol id="arrow-w" viewBox="0 0 16 16"><path fill-opacity=".2" d="M8.707 2.707L9.414 2 8 .586l-.707.707 1.414 1.414zM2 8l-.707-.707L.586 8l.707.707L2 8zm5.293 6.707l.707.707L9.414 14l-.707-.707-1.414 1.414zm0-13.414l-6 6 1.414 1.414 6-6-1.414-1.414zm-6 7.414l6 6 1.414-1.414-6-6-1.414 1.414zM2 9h12V7H2v2z"/></symbol><symbol id="award" viewBox="0 0 32 32"><path fill-opacity=".6" fill-rule="evenodd" d="M16.633 1.336l3.634 3.95 5.118.8-.8 5.275 2.545 4.77-4.612 2.544-2.07 4.935-4.934-2.069-4.892 1.376.996 2.683.973-1.62 2.287 1.371-3.827 6.379-2.328-6.266-7.371 1.005 4.002-7.624 2.361 1.24-1.597 3.043 4.176-.57-1.315-4.675-4.302-3.028 3.033-4.31-.318-5.397 5.272-.32 3.969-3.492zm-.197 3.725L13.74 7.435l-3.529.214.216 3.67-2.034 2.89 2.898 2.039.967 3.44 3.43-.966 3.334 1.398 1.397-3.332 3.122-1.722-1.723-3.23.534-3.525-3.416-.534-2.499-2.716z" clip-rule="evenodd"/><path fill-opacity=".6" d="M26.144 19.305l3.638 7.85-6.86-1.373-2.693 6.106-3.413-6.611 2.37-1.223.854 1.655 1.307-2.961 3.807.761-1.43-3.083 2.42-1.121z"/></symbol><symbol id="book" viewBox="0 0 32 31"><path fill-opacity=".6" d="M13.333 10.667h-8V8h8v2.667zM5.333 16h8v-2.667h-8V16zM13.333 21.333h-8v-2.666h8v2.666zM18.667 16h8v-2.667h-8V16zM26.667 21.333h-8v-2.666h8v2.666zM18.667 10.667h8V8h-8v2.667z"/><path fill-opacity=".6" fill-rule="evenodd" d="M0 0h13.333v1.333c0 .147.064.398.704.68.62.273 1.426.387 1.963.387.613 0 1.412-.117 2.004-.383.591-.265.663-.506.663-.684V0H32v28.533H21.038c-.436.906-1.279 1.47-2.001 1.787-1.046.46-2.24.613-3.037.613-.797 0-1.99-.152-3.037-.613-.722-.317-1.565-.881-2.001-1.787H0V0zm2.667 2.667v23.2h10.666V27.2c0 .147.064.398.704.68.62.273 1.426.387 1.963.387.537 0 1.343-.114 1.963-.387.64-.282.704-.533.704-.68v-1.333h10.666v-23.2h-8.288c-.417.888-1.22 1.456-1.949 1.783-1.04.467-2.242.617-3.096.617-.797 0-1.99-.153-3.037-.613-.722-.318-1.565-.882-2.001-1.787H2.667z" clip-rule="evenodd"/></symbol><symbol id="check" viewBox="0 0 14 11"><path stroke-width="2" d="M1 4.25l4.5 4.5 7.5-7.5"/></symbol><symbol id="cross" viewBox="0 0 24 24"><path stroke-linecap="square" stroke-width="2" d="M17.656 17.657L6.343 6.343M17.657 6.343L6.344 17.657"/></symbol><symbol id="document" viewBox="0 0 32 32"><path fill-opacity=".6" d="M24.001 26.667h-16V24h16v2.667zM8.001 21.333h16v-2.666h-16v2.666zM24.001 16h-16v-2.667h16V16zM8.001 8h9.334V5.333H8V8z"/><path fill-opacity=".6" fill-rule="evenodd" d="M2.668 0H23.22l6.115 6.114V32H2.668V0zm2.667 2.667v26.666h21.333V7.22l-4.552-4.552H5.335z" clip-rule="evenodd"/></symbol><symbol id="download" viewBox="0 0 24 24"><path fill-rule="evenodd" d="M24 24H0v-8h4v4h16v-4h4v8z" clip-rule="evenodd"/><path d="M14 0v12h-4V0z"/><path fill-rule="evenodd" d="M11.998 17.39L23.98 5.407l-2.828-2.829-9.166 9.167-9.159-9.159L0 5.415 11.985 17.4l.011-.011.002.001z" clip-rule="evenodd"/></symbol><symbol id="information" viewBox="0 0 33 32"><g clip-path="url(#clip0_3038_14154)"><path d="M17.833 6.667v2.666h-2.666V6.667h2.666zM15.167 20v-5.333H12.5V12h5.333v8h4v2.667H11.167V20h4z"/><path fill-rule="evenodd" d="M.5 16c0-8.8 7.2-16 16-16s16 7.2 16 16-7.2 16-16 16-16-7.2-16-16zm29.333 0c0-7.333-6-13.333-13.333-13.333S3.167 8.667 3.167 16s6 13.333 13.333 13.333 13.333-6 13.333-13.333z" clip-rule="evenodd"/></g></symbol><symbol id="list" viewBox="0 0 21 18"><path d="M20.6.5h-13v2h13v-2zM.6 5.5h4v2h-4v-2zM7.6 5.5h13v2h-13v-2zM.6.5h4v2h-4v-2zM20.6 10.5h-13v2h13v-2zM.6 10.5h4v2h-4v-2zM20.6 15.5h-13v2h13v-2zM.6 15.5h4v2h-4v-2z"/></symbol><symbol id="order-l" viewBox="0 0 24 24"><path d="M10.637 10.356L7.14 6.857l1.414-1.414L11 7.89V1h2v6.993l2.507-2.507L16.92 6.9l-3.455 3.456.037.037-1.414 1.414-.037-.037-.01.01-1.414-1.415.01-.01z"/><path d="M5 4V2H1v20h22V2h-4v2h2v16H3V4h2z"/><path d="M4 18h5v-2H4v2z"/></symbol><symbol id="order-s" viewBox="0 0 25 24"><g clip-path="url(#clip0_3404_60501)"><path d="M17 3v5h3.5V6H19V3h-2z"/><path fill-rule="evenodd" d="M11.5 6.5C11.5 2.9 14.4 0 18 0s6.5 2.9 6.5 6.5S21.6 13 18 13s-6.5-2.9-6.5-6.5zm11 0C22.5 4 20.5 2 18 2s-4.5 2-4.5 4.5 2 4.5 4.5 4.5 4.5-2 4.5-4.5z" clip-rule="evenodd"/><path d="M2.5 20V4h4v6.51l4.69-1.99-.78-1.84-1.91.81V4h2c.1-.7.2-1.4.5-2H.5v20h22v-9.3c-.6.6-1.3 1.1-2 1.2V20h-18z"/><path d="M9.5 16h-5v-2h5v2z"/></g></symbol><symbol id="search" viewBox="0 0 24 24"><path fill-rule="evenodd" d="M0 9.5a9.5 9.5 0 1119 0 9.46 9.46 0 01-2.113 5.973l5.82 5.82-1.414 1.414-5.82-5.82A9.46 9.46 0 019.5 19 9.5 9.5 0 010 9.5zm15.335 4.712l-1.123 1.123a7.5 7.5 0 111.123-1.123z" clip-rule="evenodd"/></symbol></svg>