<svg width="16" height="16" viewBox="0 0 16 16" fill="none" xmlns="http://www.w3.org/2000/svg">
<path d="M8.70711 2.70711L9.41421 2L8 0.585786L7.29289 1.29289L8.70711 2.70711ZM2 8L1.29289 7.29289L0.585786 8L1.29289 8.70711L2 8ZM7.29289 14.7071L8 15.4142L9.41421 14L8.70711 13.2929L7.29289 14.7071ZM7.29289 1.29289L1.29289 7.29289L2.70711 8.70711L8.70711 2.70711L7.29289 1.29289ZM1.29289 8.70711L7.29289 14.7071L8.70711 13.2929L2.70711 7.29289L1.29289 8.70711ZM2 9L14 9V7L2 7L2 9Z" fill="#4F5659" fill-opacity="0.2"/>
</svg>
