<svg width="16" height="16" viewBox="0 0 16 16" fill="none" xmlns="http://www.w3.org/2000/svg">
<path d="M7.29289 13.2929L6.58579 14L8 15.4142L8.70711 14.7071L7.29289 13.2929ZM14 8L14.7071 8.70711L15.4142 8L14.7071 7.29289L14 8ZM8.70711 1.29289L8 0.585786L6.58578 2L7.29289 2.70711L8.70711 1.29289ZM8.70711 14.7071L14.7071 8.70711L13.2929 7.29289L7.29289 13.2929L8.70711 14.7071ZM14.7071 7.29289L8.70711 1.29289L7.29289 2.70711L13.2929 8.70711L14.7071 7.29289ZM14 7L2 7L2 9L14 9V7Z" fill="#4F5659" fill-opacity="0.2"/>
</svg>
