<svg width="32" height="32" viewBox="0 0 32 32" fill="none" xmlns="http://www.w3.org/2000/svg">
<path fill-rule="evenodd" clip-rule="evenodd" d="M16.6328 1.33594L20.2672 5.28635L25.385 6.08601L24.5857 11.3611L27.1296 16.1309L22.5181 18.6752L20.4485 23.6104L15.5145 21.5413L10.622 22.9173L11.6185 25.6003L12.5912 23.9791L14.8779 25.3511L11.0506 31.73L8.72318 25.4639L1.35156 26.4691L5.35403 18.8454L7.71509 20.0849L6.11755 23.1278L10.2944 22.5583L8.97941 17.8826L4.67682 14.8549L7.70951 10.5453L7.39203 5.1481L12.6639 4.82859L16.6328 1.33594ZM16.4363 5.061L13.7386 7.43502L10.2104 7.64884L10.4263 11.3183L8.39229 14.2087L11.2897 16.2476L12.2571 19.6873L15.6879 18.7223L19.0206 20.1199L20.4177 16.7884L23.5395 15.066L21.8167 11.8358L22.3508 8.31093L18.9353 7.77726L16.4363 5.061Z" fill="white" fill-opacity="0.6"/>
<path d="M26.1443 19.3045L29.782 27.1544L22.9225 25.7825L20.2288 31.8882L16.8164 25.2767L19.186 24.0536L20.0403 25.7088L21.3466 22.7478L25.1537 23.5092L23.7248 20.4258L26.1443 19.3045Z" fill="white" fill-opacity="0.6"/>
</svg>
