<svg width="32" height="31" viewBox="0 0 32 31" fill="none" xmlns="http://www.w3.org/2000/svg">
<path d="M13.3333 10.6667H5.33333V8H13.3333V10.6667Z" fill="white" fill-opacity="0.6"/>
<path d="M5.33333 16H13.3333V13.3333H5.33333V16Z" fill="white" fill-opacity="0.6"/>
<path d="M13.3333 21.3333H5.33333V18.6667H13.3333V21.3333Z" fill="white" fill-opacity="0.6"/>
<path d="M18.6667 16H26.6667V13.3333H18.6667V16Z" fill="white" fill-opacity="0.6"/>
<path d="M26.6667 21.3333H18.6667V18.6667H26.6667V21.3333Z" fill="white" fill-opacity="0.6"/>
<path d="M18.6667 10.6667H26.6667V8H18.6667V10.6667Z" fill="white" fill-opacity="0.6"/>
<path fill-rule="evenodd" clip-rule="evenodd" d="M0 0H13.3333V1.33333C13.3333 1.48027 13.3968 1.73123 14.037 2.01291C14.6573 2.28585 15.4635 2.4 16 2.4C16.6127 2.4 17.4115 2.28294 18.0039 2.01697C18.595 1.75156 18.6667 1.51102 18.6667 1.33333V0H32V28.5333H21.038C20.6018 29.4387 19.7592 30.0027 19.037 30.3204C17.9906 30.7808 16.7968 30.9333 16 30.9333C15.2032 30.9333 14.0094 30.7808 12.963 30.3204C12.2408 30.0027 11.3982 29.4387 10.962 28.5333H0V0ZM2.66667 2.66667V25.8667H13.3333V27.2C13.3333 27.3469 13.3968 27.5979 14.037 27.8796C14.6573 28.1525 15.4635 28.2667 16 28.2667C16.5365 28.2667 17.3427 28.1525 17.963 27.8796C18.6032 27.5979 18.6667 27.3469 18.6667 27.2V25.8667H29.3333V2.66667H21.0453C20.6278 3.55537 19.8246 4.12262 19.0961 4.44969C18.0552 4.91706 16.8539 5.06667 16 5.06667C15.2032 5.06667 14.0094 4.91415 12.963 4.45375C12.2408 4.13599 11.3982 3.57202 10.962 2.66667H2.66667Z" fill="white" fill-opacity="0.6"/>
</svg>
