<svg width="33" height="32" viewBox="0 0 33 32" fill="none" xmlns="http://www.w3.org/2000/svg">
<g clip-path="url(#clip0_3038_14154)">
<path d="M17.8333 6.66667V9.33333H15.1667V6.66667H17.8333Z" fill="white"/>
<path d="M15.1667 20V14.6667H12.5V12H17.8333V20H21.8333V22.6667H11.1667V20H15.1667Z" fill="white"/>
<path fill-rule="evenodd" clip-rule="evenodd" d="M0.5 16C0.5 7.2 7.7 0 16.5 0C25.3 0 32.5 7.2 32.5 16C32.5 24.8 25.3 32 16.5 32C7.7 32 0.5 24.8 0.5 16ZM29.8333 16C29.8333 8.66667 23.8333 2.66667 16.5 2.66667C9.16667 2.66667 3.16667 8.66667 3.16667 16C3.16667 23.3333 9.16667 29.3333 16.5 29.3333C23.8333 29.3333 29.8333 23.3333 29.8333 16Z" fill="white"/>
</g>
<defs>
<clipPath id="clip0_3038_14154">
<rect width="32" height="32" fill="white" transform="translate(0.5)"/>
</clipPath>
</defs>
</svg>
