<svg width="24" height="24" viewBox="0 0 24 24" fill="none" xmlns="http://www.w3.org/2000/svg">
<path fill-rule="evenodd" clip-rule="evenodd" d="M0 9.5C0 4.25329 4.25329 0 9.5 0C14.7467 0 19 4.25329 19 9.5C19 11.7631 18.2086 13.8415 16.8875 15.4733L22.7071 21.2929L21.2929 22.7071L15.4733 16.8875C13.8415 18.2086 11.7631 19 9.5 19C4.25329 19 0 14.7467 0 9.5ZM15.335 14.2124L14.2124 15.335C12.9246 16.3763 11.2851 17 9.5 17C5.35786 17 2 13.6421 2 9.5C2 5.35786 5.35786 2 9.5 2C13.6421 2 17 5.35786 17 9.5C17 11.2851 16.3763 12.9246 15.335 14.2124Z" fill="#DD2B1C"/>
</svg>
